<svg width="837" height="505" viewBox="0 0 837 505" fill="none" xmlns="http://www.w3.org/2000/svg">
<g clip-path="url(#clip0_440_25)">
<path d="M298.737 339.625C294.317 338.451 288.346 335.628 285.723 333.472L284.038 332.087L285.723 329.112C287.783 325.475 290.101 324.686 293.214 326.562C301.378 331.479 307.497 332.871 314.051 331.299C320.286 329.804 324.319 325.353 324.319 319.966C324.319 313.726 321.049 311.228 306.695 306.506C295.99 302.984 291.572 300.433 288.723 296.13C287.011 293.544 286.635 292.104 286.416 287.308C286.187 282.273 286.393 281.092 288.105 277.593C291.774 270.096 299.282 265.726 309.701 265.023C318.373 264.437 329.552 267.798 333.524 272.186C334.636 273.414 334.624 273.676 333.357 275.837C331.007 279.848 330.171 279.973 324.201 277.206C312.26 271.67 299.661 274.62 298.255 283.281C297.193 289.825 300.222 292.392 314.865 297.359C326.69 301.369 330.732 303.666 333.601 308.004C335.468 310.826 335.646 311.678 335.633 317.723C335.621 323.478 335.362 324.842 333.659 328.09C330.658 333.818 325.278 337.685 317.375 339.796C312.642 341.059 303.835 340.979 298.737 339.625ZM181.062 302.796V265.534H188.005H194.949V302.796V340.058H188.005H181.062V302.796ZM21.1725 288.731C9.84351 260.904 0.364512 237.56 0.10807 236.857C-0.313914 235.7 0.263018 235.578 6.18485 235.578C11.5088 235.578 12.9334 235.817 13.831 236.857C15.0535 238.274 45.2155 313.647 46.6502 318.87C47.1469 320.678 47.7702 322.414 48.0354 322.726C48.3006 323.039 49.0816 321.267 49.771 318.788C52.2294 309.949 81.7 237.069 83.1239 236.307C84.7879 235.417 96.2772 235.329 96.2772 236.206C96.2772 236.552 87.3667 258.663 76.476 285.341C65.5853 312.02 56.1758 335.081 55.5659 336.588L54.4571 339.328H48.1139H41.7707L21.1725 288.731ZM426.645 287.453V235.578H433.588H440.532V287.453V339.328H433.588H426.645V287.453ZM549.644 288.731C538.306 260.904 528.817 237.56 528.557 236.857C528.128 235.699 528.702 235.578 534.627 235.578C539.951 235.578 541.375 235.817 542.273 236.857C543.384 238.145 573.423 313.067 575.008 318.505C575.477 320.112 576.038 321.92 576.256 322.523C576.478 323.136 577.362 321.365 578.261 318.505C579.145 315.692 586.703 296.206 595.055 275.203C605.147 249.827 610.693 236.774 611.585 236.297C612.324 235.902 615.702 235.578 619.091 235.578H625.253L605.989 282.887C595.394 308.906 585.863 332.25 584.809 334.761L582.893 339.328H576.576H570.259L549.644 288.731Z" fill="#0E2940"/>
<path d="M736.183 341.819C715.863 337.297 700.235 322.456 694.937 302.649C692.921 295.112 692.438 288.736 693.37 281.973C696.081 262.304 706.852 247.512 724.557 239.142C732.375 235.446 738.282 234.138 747.146 234.14C756.502 234.143 763.159 235.573 770.749 239.211C784.518 245.811 793.831 256.117 798.916 270.38C809.477 300.003 792.234 332.845 761.764 341.143C755.381 342.881 742.488 343.222 736.183 341.819ZM183.564 258.303C180.045 256.706 177.73 253.991 176.561 250.092C174.835 244.331 178.979 237.429 185.302 235.536C193.69 233.024 202.666 241.804 200.182 250.092C199.014 253.991 196.699 256.706 193.18 258.303C189.426 260.008 187.318 260.008 183.564 258.303ZM428.141 100.387C419.564 98.5944 411.422 91.7834 408.298 83.7877C406.024 77.9684 406.062 69.5776 408.39 63.5152C410.703 57.49 417.297 50.8879 423.357 48.529C429.374 46.1868 437.678 46.1968 443.822 48.5527C449.85 50.865 456.454 57.4562 458.814 63.5142C461.157 69.5295 461.147 77.8303 458.79 83.9718C456.471 90.0139 449.855 96.636 443.926 98.8505C438.883 100.734 432.689 101.337 428.141 100.387Z" fill="url(#paint0_linear_440_25)"/>
<path d="M706.945 504.729C671.921 501.279 651.218 497.75 619.602 489.84C529.827 467.376 427.92 422.373 332.096 362.871C323.337 357.433 320.061 355.038 320.767 354.591C321.313 354.245 322.253 353.954 322.856 353.944C323.459 353.935 325.617 353.151 327.65 352.205L331.347 350.484L342.268 357.216C465.8 433.373 599.356 484.295 700.732 493.893C716.84 495.418 749.805 495.036 760.666 493.199C786.904 488.761 802.545 481.821 814.238 469.43C819.852 463.481 824.194 455.195 826.016 446.951C827.5 440.238 827.516 427.678 826.054 419.244C822.791 400.448 809.657 372.009 793.803 349.411L789.856 343.786L793.249 340.643C795.115 338.915 796.914 337.398 797.246 337.273C797.578 337.148 800.944 341.751 804.726 347.502C820.233 371.083 829.171 389.967 834.673 410.767C836.8 418.809 836.941 420.156 836.993 432.848C837.042 444.883 836.863 447.001 835.367 452.168C827.335 479.894 802.442 497.116 761.256 503.439C754.062 504.543 714.581 505.481 706.945 504.729ZM267.673 319.787C247.432 304.876 221.834 284.954 211.211 275.843C209.801 274.634 209.568 273.721 209.578 269.435C209.584 266.687 209.883 263.974 210.241 263.408C210.749 262.606 213.142 264.243 221.011 270.775C238.519 285.306 266.364 306.803 275.551 312.881L278.325 314.716L276.565 316.61C275.598 317.652 274.232 319.409 273.531 320.514C272.83 321.619 272.047 322.513 271.792 322.501C271.537 322.487 269.683 321.267 267.673 319.787ZM683.922 234.012C626.381 186.06 548.667 135.58 477.259 99.7717C473.139 97.7055 469.769 95.9357 469.771 95.8389C469.772 95.7422 470.595 94.0454 471.598 92.0686C472.601 90.0917 473.422 88.0344 473.422 87.4969C473.422 85.8291 505.299 102.406 536.645 120.374C593.141 152.759 650.817 192.634 694.154 229.27C697.973 232.498 701.231 235.234 701.393 235.35C701.714 235.577 695.483 242.701 694.885 242.79C694.684 242.818 689.751 238.87 683.922 234.012ZM155.08 223.755C108.103 175.746 77.7898 128.438 69.4913 90.1832C67.5865 81.4019 67.5862 61.2691 69.4908 54.017C76.296 28.1054 99.0562 10.2985 134.284 3.32515C148.677 0.47589 155.225 -0.0330771 177.041 0.0016053C204.648 0.0442475 224.608 2.17319 255.613 8.3773C299.835 17.226 340.629 29.7782 395.688 51.4784L397.257 52.0968L395.505 55.5552C394.542 57.4574 393.754 59.4896 393.754 60.0711C393.754 61.5508 392.483 61.18 377.309 55.2736C319.513 32.7779 263.456 17.964 213.221 11.9114C196.798 9.93259 160.704 9.50304 148.902 11.1459C110.094 16.548 88.1226 30.1164 80.491 53.3925C78.4723 59.5492 78.3727 60.4627 78.4311 72.2828C78.488 83.7799 78.6621 85.3359 80.7736 93.2098C90.1653 128.233 115.394 167.034 158.614 212.929L170.655 225.715L169.317 227.541C168.582 228.546 167.22 230.294 166.29 231.427L164.601 233.486L155.08 223.755Z" fill="url(#paint1_linear_440_25)"/>
</g>
<defs>
<linearGradient id="paint0_linear_440_25" x1="176.168" y1="194.734" x2="802.033" y2="194.734" gradientUnits="userSpaceOnUse">
<stop stop-color="#D97A43"/>
<stop offset="1" stop-color="#A64833"/>
</linearGradient>
<linearGradient id="paint1_linear_440_25" x1="68.0625" y1="252.5" x2="837" y2="252.5" gradientUnits="userSpaceOnUse">
<stop stop-color="#048ABF"/>
<stop offset="1" stop-color="#0E2940"/>
</linearGradient>
<clipPath id="clip0_440_25">
<rect width="837" height="505" fill="white"/>
</clipPath>
</defs>
</svg>
